<svg version="1.1" id="Layer_1" xmlns="http://www.w3.org/2000/svg" xmlns:xlink="http://www.w3.org/1999/xlink" x="0px" y="0px"
	 width="100%" viewBox="0 0 150 150" enable-background="new 0 0 150 150" xml:space="preserve">
<path fill="#020000" opacity="1.000000" stroke="none" 
	d="
M87.000000,151.000000 
	C58.023762,151.000000 29.547527,151.000000 1.035645,151.000000 
	C1.035645,101.065475 1.035645,51.130920 1.035645,1.098181 
	C50.892685,1.098181 100.785629,1.098181 150.839294,1.098181 
	C150.839294,50.999584 150.839294,100.999748 150.839294,151.000000 
	C129.797943,151.000000 108.648972,151.000000 87.000000,151.000000 
M84.697205,57.124329 
	C84.147629,57.038578 83.598061,56.952824 83.319359,56.262909 
	C84.955116,53.819618 86.744514,51.460167 88.147179,48.889683 
	C88.671280,47.929222 88.293488,46.476627 88.326927,45.248425 
	C87.210503,45.583626 86.094070,45.918827 84.488937,46.068264 
	C84.325569,46.007576 84.162209,45.946892 83.515953,45.489853 
	C82.010498,45.659740 80.505035,45.829624 78.916138,45.202675 
	C79.031746,43.876446 79.147354,42.550220 79.602699,40.637207 
	C79.567413,39.758362 79.532135,38.879517 80.140366,37.738762 
	C80.675163,36.736176 81.209969,35.733589 82.017120,34.783863 
	C82.129112,34.696278 82.241104,34.608688 82.353096,34.521103 
	C82.208183,34.365280 82.063278,34.209454 82.056732,33.268326 
	C82.051765,31.130188 82.046806,28.992050 82.715080,26.931746 
	C82.959274,26.797819 83.203468,26.663893 83.447662,26.529964 
	C82.867035,26.118568 82.286400,25.707174 81.453079,24.706623 
	C81.009392,23.739029 80.565704,22.771435 80.198280,21.195185 
	C80.045158,20.145439 79.892044,19.095694 79.706970,17.826811 
	C76.614502,19.628635 75.521759,21.469530 78.418617,24.680035 
	C76.563400,27.408787 74.708183,30.137539 72.222099,32.950176 
	C71.363579,33.544571 70.505058,34.138962 68.975632,35.011463 
	C65.136314,38.800697 60.718391,35.535267 56.656506,35.344612 
	C56.285809,33.666290 55.915115,31.987965 55.573982,30.443495 
	C49.153248,28.107168 49.104820,33.532059 46.866119,37.262390 
	C44.636600,41.126888 42.407082,44.991383 39.837692,48.268223 
	C33.912148,39.392326 26.194099,32.467422 16.610523,26.786686 
	C15.190534,26.281185 13.770544,25.775684 12.350554,25.270185 
	C12.085673,25.792732 11.820792,26.315281 11.555911,26.837830 
	C13.388881,27.877821 15.221851,28.917812 17.002365,30.001360 
	C17.002365,30.001360 17.049515,29.954107 16.989733,30.713213 
	C18.208616,32.218803 19.427498,33.724392 20.907808,35.866013 
	C22.233772,37.939335 23.559736,40.012661 25.081131,42.846836 
	C25.726463,46.058876 26.330105,49.280041 27.030222,52.480095 
	C27.597887,55.074753 28.281487,57.644047 29.101654,60.869312 
	C30.445488,61.644413 31.769047,62.457745 33.138706,63.184147 
	C34.586239,63.951851 36.506485,64.279953 37.463318,65.429886 
	C39.654007,68.062698 41.383484,71.079262 43.880226,74.805595 
	C44.561081,72.481033 44.832985,71.552711 45.692341,70.934715 
	C46.798267,71.622566 47.904194,72.310417 49.218620,73.429085 
	C49.416634,73.699249 49.679302,73.869904 50.312614,74.534019 
	C50.629169,75.357368 50.945724,76.180710 50.923653,77.551384 
	C50.580925,78.318649 50.238197,79.085922 49.281822,80.156502 
	C45.877441,83.148239 42.473061,86.139977 38.375622,89.185020 
	C37.916306,89.130852 37.456993,89.076683 36.926395,88.979507 
	C36.926395,88.979507 37.033592,88.987434 37.198715,89.660988 
	C37.732349,89.985031 38.265984,90.309074 38.633816,91.381325 
	C38.545456,91.883293 38.457096,92.385262 38.099380,93.580841 
	C37.875999,95.032524 37.652618,96.484207 37.228302,98.758347 
	C37.032631,106.972061 38.675812,108.829628 48.087360,111.415535 
	C48.716263,111.458633 49.345169,111.501724 50.702225,111.511337 
	C51.140358,111.299065 51.578487,111.086800 52.669785,111.030365 
	C55.475204,111.311623 58.280624,111.592873 61.778923,111.909538 
	C62.855183,111.554604 63.931442,111.199669 65.618225,111.101547 
	C66.759171,111.731590 67.900116,112.361633 69.036095,113.647209 
	C69.675674,114.461342 70.315254,115.275482 71.351158,116.642494 
	C76.511215,118.549164 81.671265,120.455833 87.462723,122.821472 
	C99.754471,125.387817 111.337898,124.649162 121.561554,116.196892 
	C126.123772,112.425140 128.943451,108.216034 127.705727,101.245392 
	C127.098114,93.675995 126.705414,85.972801 116.384155,83.958977 
	C115.964668,83.915535 115.545189,83.872101 114.793419,83.260597 
	C113.530075,81.838570 112.266739,80.416542 110.702942,78.360802 
	C106.339371,76.474640 101.975807,74.588470 97.315887,72.156189 
	C96.917160,71.460732 96.518440,70.765282 95.697998,69.586578 
	C95.457642,68.776184 95.217293,67.965782 95.491371,66.875961 
	C95.992836,66.584846 96.494301,66.293732 97.586586,66.316673 
	C98.840828,67.460930 100.095070,68.605186 101.737938,70.103989 
	C101.814026,68.731239 101.863068,67.846375 102.482269,66.631958 
	C103.657692,65.631874 104.833122,64.631790 106.889885,63.693428 
	C111.307816,64.384171 115.725754,65.074921 121.458778,65.971283 
	C117.257629,62.014103 118.649109,59.954388 122.100189,58.929771 
	C124.251404,60.535679 124.443672,60.414131 125.798752,56.769428 
	C129.867615,56.246098 133.936493,55.722771 138.817108,55.457569 
	C140.026367,55.457569 141.235626,55.457569 142.444901,55.457569 
	C141.177750,53.296234 139.667160,51.927799 137.904190,51.091206 
	C134.681595,49.561989 131.309738,48.347363 128.121262,46.303421 
	C128.110107,44.549767 128.098953,42.796108 128.639938,40.667381 
	C133.151581,36.485874 137.663239,32.304367 141.703018,28.560192 
	C122.483078,29.181330 104.680359,31.299318 93.583176,52.403114 
	C92.875977,53.646423 92.168777,54.889732 90.923637,56.361824 
	C90.656006,56.639668 90.388374,56.917511 90.191612,57.163864 
	C90.191612,57.163864 90.220512,57.235836 89.643509,57.227074 
	C89.116768,57.651455 88.590034,58.075840 87.768715,58.644993 
	C87.768715,58.644993 87.537888,58.878345 87.122818,58.272774 
	C86.484467,57.963902 85.846107,57.655029 84.697205,57.124329 
M123.597794,66.268791 
	C123.090988,67.883881 122.584183,69.498978 122.077385,71.114067 
	C123.234779,70.857491 124.392181,70.600914 125.549576,70.344337 
	C125.117844,68.962616 124.686111,67.580894 123.597794,66.268791 
M144.091965,55.111244 
	C143.679321,55.245468 143.266678,55.379692 142.854034,55.513908 
	C143.093735,55.907753 143.333435,56.301598 143.573120,56.695446 
	C143.928497,56.311241 144.283875,55.927032 144.091965,55.111244 
M88.525444,55.407322 
	C88.525444,55.407322 88.610130,55.539616 88.525444,55.407322 
z"/>
<path fill="#66100D" opacity="1.000000" stroke="none" 
	d="
M40.177559,48.855881 
	C42.407082,44.991383 44.636600,41.126888 47.594582,37.120655 
	C51.084869,36.661209 53.846695,36.343498 56.608524,36.025787 
	C60.718391,35.535267 65.136314,38.800697 69.546585,35.160927 
	C73.166008,37.281593 76.214485,39.252792 79.262962,41.223991 
	C79.147354,42.550220 79.031746,43.876446 78.953323,45.928123 
	C78.986198,47.089169 78.981895,47.524761 78.948074,48.208092 
	C78.918549,48.455833 78.839333,48.948486 78.527596,48.970398 
	C77.474014,49.322231 76.732170,49.652149 75.581604,49.994232 
	C72.932816,50.252815 70.340149,51.299198 68.555435,50.512547 
	C66.890671,49.778770 66.084663,47.096680 64.832481,45.167145 
	C64.213043,46.123573 63.606293,47.060413 62.579536,47.996780 
	C58.780907,47.325771 55.402279,46.655235 51.930649,45.726944 
	C51.253120,45.486061 50.668591,45.502922 50.084064,45.519783 
	C50.396988,47.693886 50.709908,49.867989 50.661148,52.068539 
	C43.976070,54.177795 43.736126,54.726257 46.859756,60.016365 
	C47.265617,60.703724 47.708244,61.369373 47.986595,62.284332 
	C47.590397,63.019588 47.341454,63.515591 47.062363,64.249924 
	C47.338200,64.837051 47.644188,65.185867 47.892311,65.800591 
	C48.608215,66.434059 49.381985,66.801613 50.147919,67.536713 
	C50.507137,71.309418 52.988632,72.446907 55.679562,71.797409 
	C57.390141,71.384521 58.696934,69.298737 60.546944,68.058151 
	C66.106697,70.580658 69.274681,67.578911 72.506729,64.071259 
	C73.552368,65.560158 74.292679,66.909554 74.862518,68.497955 
	C74.203178,69.786888 73.714310,70.836807 72.872162,71.983665 
	C65.714317,76.602989 63.699665,84.766731 69.022842,88.383850 
	C69.034943,89.408165 69.044113,90.089828 68.649796,90.823631 
	C66.163689,91.202728 64.081085,91.529678 61.935753,91.594391 
	C61.581528,90.887825 61.290035,90.443512 61.077873,89.622551 
	C63.459755,84.150833 63.982471,79.070763 61.087242,73.980515 
	C61.145588,73.941040 61.145519,73.766449 61.145519,73.766449 
	C61.145519,73.766449 60.979858,73.971367 60.595047,73.975204 
	C58.789196,74.142654 57.368153,74.306267 55.947109,74.469887 
	C55.984341,74.764923 56.021572,75.059959 56.058804,75.354996 
	C57.161068,75.864914 58.263332,76.374825 60.201019,77.271217 
	C57.920486,78.790833 56.285969,79.879982 54.640881,80.976173 
	C53.284313,79.381302 52.273296,78.192680 51.262280,77.004059 
	C50.945724,76.180710 50.629169,75.357368 50.012932,74.061096 
	C49.502583,73.363274 49.268204,73.166649 49.010117,72.998276 
	C47.904194,72.310417 46.798267,71.622566 45.300545,70.512886 
	C40.660011,66.787415 38.828362,62.180717 38.121452,56.827988 
	C38.594357,55.934818 38.844490,55.301426 39.303619,54.372108 
	C39.734264,52.336079 39.955914,50.595982 40.177559,48.855881 
z"/>
<path fill="#AA0805" opacity="1.000000" stroke="none" 
	d="
M94.071716,52.021751 
	C104.680359,31.299318 122.483078,29.181330 141.703018,28.560192 
	C137.663239,32.304367 133.151581,36.485874 128.144714,40.564751 
	C127.427917,39.276741 127.206345,38.091366 127.159531,36.646454 
	C128.553497,35.255329 129.772705,34.123737 130.936096,32.736237 
	C122.552788,31.237329 109.560265,37.008362 105.934212,44.016239 
	C109.163986,44.016239 112.096657,44.016239 115.364014,44.181458 
	C119.092018,45.203411 122.485344,46.060143 125.916382,46.942730 
	C125.954109,46.968586 126.028458,47.021870 126.020660,47.362587 
	C126.012596,48.158520 126.012329,48.613743 125.794876,49.273544 
	C124.721107,49.985188 123.864517,50.492241 123.012909,50.668732 
	C123.018448,49.897354 123.019005,49.456532 122.771622,48.800320 
	C121.682106,48.380363 120.840530,48.175800 120.003029,47.986557 
	C120.007095,48.001873 120.035477,47.976322 119.728714,47.760906 
	C117.663216,47.354202 115.904480,47.162918 113.781120,46.764923 
	C105.728752,44.387558 99.734573,46.935390 94.916565,52.939625 
	C94.542099,52.494579 94.306908,52.258163 94.071716,52.021751 
z"/>
<path fill="#B30A07" opacity="1.000000" stroke="none" 
	d="
M127.562607,102.066071 
	C128.943451,108.216034 126.123772,112.425140 121.561554,116.196892 
	C111.337898,124.649162 99.754471,125.387817 87.185760,122.203979 
	C86.944412,121.068298 86.980026,120.550110 87.458084,120.029480 
	C90.266212,120.030441 92.631912,120.033859 95.308762,120.241295 
	C103.072914,120.545692 109.880112,118.957626 115.325096,112.918755 
	C116.760262,111.552872 117.895248,110.291458 119.366371,108.949806 
	C120.951088,107.607773 122.131172,106.267052 123.467941,105.106850 
	C124.748184,103.995728 126.191154,103.072098 127.562607,102.066071 
z"/>
<path fill="#9A0502" opacity="1.000000" stroke="none" 
	d="
M123.007935,50.999298 
	C123.864517,50.492241 124.721107,49.985188 126.093269,49.440678 
	C130.407684,51.335297 134.206528,53.267368 138.005356,55.199440 
	C133.936493,55.722771 129.867615,56.246098 125.116318,56.946243 
	C123.574585,57.525612 122.715279,57.928165 121.855972,58.330715 
	C118.649109,59.954388 117.257629,62.014103 121.458778,65.971283 
	C115.725754,65.074921 111.307816,64.384171 106.532776,63.338142 
	C107.783890,61.336155 109.392105,59.689453 111.251266,58.029919 
	C111.669617,58.011787 111.837036,58.006489 112.333702,57.927536 
	C113.774918,56.572334 114.886879,55.290787 116.339020,53.929329 
	C118.788788,52.899376 120.898361,51.949337 123.007935,50.999298 
z"/>
<path fill="#66110A" opacity="1.000000" stroke="none" 
	d="
M60.998547,89.999199 
	C61.290035,90.443512 61.581528,90.887825 61.626434,91.756531 
	C59.459808,93.475029 55.784882,93.131096 56.755463,97.346695 
	C56.749577,97.564522 56.665497,97.992157 56.393341,98.130409 
	C54.291275,102.115303 57.519176,103.043091 59.800358,103.994629 
	C63.014923,105.335518 64.868309,107.343491 65.007698,110.844727 
	C63.931442,111.199669 62.855183,111.554604 61.389648,111.531281 
	C60.392227,110.227066 59.975838,109.047462 59.143421,108.418167 
	C55.096710,105.358894 50.938591,102.446976 46.575443,99.306946 
	C45.499279,102.183372 43.174294,100.432404 40.733543,98.968521 
	C39.771675,98.391609 38.538738,98.266655 37.429237,97.935890 
	C37.652618,96.484207 37.875999,95.032524 38.566006,93.344231 
	C43.939011,95.215469 48.880165,96.992699 54.384651,95.286194 
	C53.760609,93.169136 53.304348,91.621277 53.230698,90.074249 
	C56.075054,90.049789 58.536800,90.024490 60.998547,89.999199 
z"/>
<path fill="#511914" opacity="1.000000" stroke="none" 
	d="
M37.328770,98.347122 
	C38.538738,98.266655 39.771675,98.391609 40.733543,98.968521 
	C43.174294,100.432404 45.499279,102.183372 46.575443,99.306946 
	C50.938591,102.446976 55.096710,105.358894 59.143421,108.418167 
	C59.975838,109.047462 60.392227,110.227066 61.043209,111.513580 
	C58.280624,111.592873 55.475204,111.311623 52.206123,110.704880 
	C51.205864,109.854713 50.669266,109.330025 50.052078,108.609573 
	C49.310833,109.250397 48.650177,110.086998 47.989517,110.923599 
	C38.675812,108.829628 37.032631,106.972061 37.328770,98.347122 
z"/>
<path fill="#780E0D" opacity="1.000000" stroke="none" 
	d="
M75.032990,68.258949 
	C74.292679,66.909554 73.552368,65.560158 72.467667,63.734570 
	C72.093849,62.806953 72.064430,62.355534 72.277153,61.713566 
	C75.224037,60.287853 77.158195,58.968452 73.010681,56.654957 
	C73.003716,55.883965 73.001457,55.442764 73.235291,54.760887 
	C74.311035,53.007500 75.150681,51.494781 75.990326,49.982063 
	C76.732170,49.652149 77.474014,49.322231 78.654663,49.312668 
	C80.693558,50.193249 82.293640,50.753483 83.893723,51.313717 
	C84.255035,49.627155 84.616341,47.940594 84.977646,46.254028 
	C86.094070,45.918827 87.210503,45.583626 88.326927,45.248425 
	C88.293488,46.476627 88.671280,47.929222 88.147179,48.889683 
	C86.744514,51.460167 84.955116,53.819618 83.257164,56.868099 
	C83.791992,57.986202 84.389015,58.499111 84.933640,59.331024 
	C84.584625,60.684841 84.288010,61.719658 83.641747,62.844444 
	C82.020523,63.614323 79.641457,64.325722 79.659744,64.968941 
	C79.766602,68.726707 77.174576,68.057167 75.032990,68.258949 
z"/>
<path fill="#940E08" opacity="1.000000" stroke="none" 
	d="
M52.848083,90.073410 
	C53.304348,91.621277 53.760609,93.169136 54.384651,95.286194 
	C48.880165,96.992699 43.939011,95.215469 38.700684,92.997421 
	C38.457096,92.385262 38.545456,91.883293 38.792259,90.835442 
	C38.990028,89.903610 39.029354,89.517662 39.068680,89.131714 
	C42.473061,86.139977 45.877441,83.148239 49.812965,80.282028 
	C51.178768,83.629509 52.013428,86.851463 52.848083,90.073410 
z"/>
<path fill="#5D100B" opacity="1.000000" stroke="none" 
	d="
M53.230698,90.074249 
	C52.013428,86.851463 51.178768,83.629509 50.119789,80.130371 
	C50.238197,79.085922 50.580925,78.318649 51.092964,77.277725 
	C52.273296,78.192680 53.284313,79.381302 54.640881,80.976173 
	C56.285969,79.879982 57.920486,78.790833 60.201019,77.271217 
	C58.263332,76.374825 57.161068,75.864914 56.058804,75.354996 
	C56.021572,75.059959 55.984341,74.764923 55.947109,74.469887 
	C57.368153,74.306267 58.789196,74.142654 60.605904,73.988770 
	C61.001572,73.998497 61.028896,74.019981 61.028896,74.019981 
	C63.982471,79.070763 63.459755,84.150833 61.077873,89.622551 
	C58.536800,90.024490 56.075054,90.049789 53.230698,90.074249 
z"/>
<path fill="#AB0704" opacity="1.000000" stroke="none" 
	d="
M40.007629,48.562050 
	C39.955914,50.595982 39.734264,52.336079 39.108208,54.130051 
	C36.810722,52.118240 34.917645,50.052551 33.013882,47.992897 
	C33.003197,47.998932 33.018299,47.987343 32.981300,47.679783 
	C32.629890,46.839527 32.315479,46.306831 31.907978,45.623386 
	C31.672817,45.280434 31.501825,45.118832 31.085896,44.710716 
	C27.591923,40.944397 24.313971,37.455193 20.855101,33.704758 
	C19.465961,32.280388 18.257738,31.117247 17.049515,29.954107 
	C17.049515,29.954107 17.002365,30.001360 17.004860,29.524340 
	C16.982204,28.439280 16.957052,27.831240 16.931900,27.223200 
	C26.194099,32.467422 33.912148,39.392326 40.007629,48.562050 
z"/>
<path fill="#140100" opacity="1.000000" stroke="none" 
	d="
M37.898685,57.087769 
	C38.828362,62.180717 40.660011,66.787415 45.006821,70.357719 
	C44.832985,71.552711 44.561081,72.481033 43.880226,74.805595 
	C41.383484,71.079262 39.654007,68.062698 37.463318,65.429886 
	C36.506485,64.279953 34.586239,63.951851 33.138706,63.184147 
	C31.769047,62.457745 30.445488,61.644413 29.197994,60.191010 
	C31.261259,57.763050 27.986416,53.024464 33.226910,53.243820 
	C34.934887,54.679340 36.416786,55.883556 37.898685,57.087769 
z"/>
<path fill="#9C0E08" opacity="1.000000" stroke="none" 
	d="
M127.634171,101.655731 
	C126.191154,103.072098 124.748184,103.995728 123.467941,105.106850 
	C122.131172,106.267052 120.951088,107.607773 119.357315,108.610550 
	C119.006790,107.899834 119.001457,107.448135 119.007294,106.754517 
	C119.018471,106.512604 119.035561,106.028557 119.359039,105.909859 
	C125.017609,100.820160 125.177483,93.261948 118.840149,87.824524 
	C118.481995,87.401741 118.244659,87.194580 117.856735,86.730370 
	C117.491035,85.649490 117.249672,84.855759 117.008301,84.062027 
	C126.705414,85.972801 127.098114,93.675995 127.634171,101.655731 
z"/>
<path fill="#741008" opacity="1.000000" stroke="none" 
	d="
M83.991386,62.754475 
	C84.288010,61.719658 84.584625,60.684841 84.941742,59.323914 
	C85.002228,58.997803 85.016647,58.984333 85.435852,58.972916 
	C86.416000,58.933781 86.976944,58.906063 87.537888,58.878345 
	C87.537888,58.878345 87.768715,58.644993 88.011673,58.825600 
	C88.909927,58.416084 89.565216,57.825958 90.220512,57.235836 
	C90.220512,57.235836 90.191612,57.163864 90.466766,57.148930 
	C90.946228,57.094933 91.150536,57.055870 91.617966,57.074417 
	C95.464897,57.132034 99.048714,57.132034 103.019081,57.132034 
	C100.767235,59.811611 99.394150,61.445515 97.700539,63.036179 
	C96.234444,63.359459 95.088867,63.725979 93.720779,64.141792 
	C93.498260,64.191086 93.044029,64.229324 92.750458,64.188286 
	C91.949501,64.434235 91.442116,64.721222 90.594528,64.975861 
	C88.833923,64.296555 87.413521,63.649601 85.658020,62.972961 
	C84.879082,62.880337 84.435234,62.817406 83.991386,62.754475 
z"/>
<path fill="#9A0803" opacity="1.000000" stroke="none" 
	d="
M98.021072,63.079422 
	C99.394150,61.445515 100.767235,59.811611 103.019081,57.132034 
	C99.048714,57.132034 95.464897,57.132034 91.642868,56.853264 
	C91.404663,56.574490 91.461571,56.133041 91.461571,56.133041 
	C92.168777,54.889732 92.875977,53.646423 93.827446,52.212433 
	C94.306908,52.258163 94.542099,52.494579 95.063965,53.255970 
	C97.225990,54.200317 99.101349,54.619686 100.991470,55.029972 
	C101.006241,55.020889 100.973907,55.016808 101.231575,55.224346 
	C102.346069,55.631733 103.202888,55.831577 104.411102,56.114960 
	C106.177322,56.488304 107.592140,56.778114 109.221237,57.250053 
	C109.957108,57.635708 110.478714,57.839230 111.000320,58.042747 
	C109.392105,59.689453 107.783890,61.336155 106.092102,63.307281 
	C104.833122,64.631790 103.657692,65.631874 101.964493,66.595108 
	C100.304840,65.398643 99.162956,64.239037 98.021072,63.079422 
z"/>
<path fill="#B1AFAF" opacity="1.000000" stroke="none" 
	d="
M82.041840,26.853912 
	C82.046806,28.992050 82.051765,31.130188 81.846771,33.805367 
	C81.636803,34.342411 81.744774,34.731007 81.744774,34.731007 
	C81.209969,35.733589 80.675163,36.736176 79.729492,37.571671 
	C77.163406,35.891815 75.008186,34.379055 72.852966,32.866295 
	C74.708183,30.137539 76.563400,27.408787 78.741035,24.152740 
	C79.416306,23.018242 79.769157,22.411041 80.122009,21.803841 
	C80.565704,22.771435 81.009392,23.739029 81.479416,25.203259 
	C81.684441,26.084566 81.863144,26.469238 82.041840,26.853912 
z"/>
<path fill="#6B120B" opacity="1.000000" stroke="none" 
	d="
M65.312958,110.973137 
	C64.868309,107.343491 63.014923,105.335518 59.800358,103.994629 
	C57.519176,103.043091 54.291275,102.115303 56.715260,98.316551 
	C59.208015,98.253220 61.106693,98.141998 63.211555,98.249466 
	C64.277931,98.988937 65.138130,99.509727 65.998901,100.273438 
	C65.999474,100.516357 66.000443,101.002197 65.773697,101.067635 
	C66.032539,102.089775 66.518127,103.046486 67.001862,104.001717 
	C67.000000,104.000244 66.998352,103.995979 67.022202,104.363548 
	C68.357697,107.496559 69.669334,110.262001 70.657532,113.023300 
	C69.903084,113.010002 69.472076,113.000847 69.041061,112.991684 
	C67.900116,112.361633 66.759171,111.731590 65.312958,110.973137 
z"/>
<path fill="#B41008" opacity="1.000000" stroke="none" 
	d="
M97.612236,72.702309 
	C101.975807,74.588470 106.339371,76.474640 110.773048,79.009628 
	C110.548737,80.519379 110.254311,81.380295 109.626839,82.140671 
	C108.207947,81.658150 107.122116,81.276176 105.935539,80.627197 
	C104.900330,80.180519 103.965851,80.000832 102.791168,79.784561 
	C102.550949,79.747963 102.087067,79.603142 102.037880,79.302139 
	C101.293564,78.368774 100.598427,77.736404 99.587601,77.084618 
	C98.851395,77.033226 98.430878,77.001259 97.911362,76.682114 
	C97.173416,75.969872 96.534462,75.544815 95.580444,75.117477 
	C94.845596,75.099571 94.425819,75.083961 93.725060,74.845444 
	C92.271851,74.443382 91.099609,74.264214 89.601280,74.094131 
	C88.840256,74.108582 88.405334,74.113930 87.981651,73.804520 
	C88.024925,72.865768 88.056953,72.241776 88.462837,71.538269 
	C90.888031,71.627518 92.939369,71.796265 95.271896,72.175552 
	C96.239464,72.491501 96.925850,72.596901 97.612236,72.702309 
z"/>
<path fill="#930402" opacity="1.000000" stroke="none" 
	d="
M33.000832,53.012516 
	C27.986416,53.024464 31.261259,57.763050 29.104000,59.868652 
	C28.281487,57.644047 27.597887,55.074753 27.030222,52.480095 
	C26.330105,49.280041 25.726463,46.058876 25.233171,42.439495 
	C27.357445,43.017380 29.329678,44.002605 31.301912,44.987831 
	C31.501825,45.118832 31.672817,45.280434 31.941895,45.941612 
	C32.385365,46.936172 32.701832,47.461758 33.018299,47.987343 
	C33.018299,47.987343 33.003197,47.998932 32.988846,48.410965 
	C32.983269,50.219505 32.992050,51.616009 33.000832,53.012516 
z"/>
<path fill="#9F0C06" opacity="1.000000" stroke="none" 
	d="
M87.015640,120.031929 
	C86.980026,120.550110 86.944412,121.068298 86.870064,121.974487 
	C81.671265,120.455833 76.511215,118.549164 71.169510,116.028473 
	C70.989861,114.964432 70.991844,114.514420 71.336983,114.152489 
	C74.446785,115.105263 77.213440,115.969948 80.286133,117.026924 
	C82.397469,117.800903 84.202751,118.382591 86.153122,119.162514 
	C86.513298,119.610176 86.752449,119.833900 87.015640,120.031929 
z"/>
<path fill="#911616" opacity="1.000000" stroke="none" 
	d="
M56.632515,35.685200 
	C53.846695,36.343498 51.084869,36.661209 47.868816,36.968594 
	C49.104820,33.532059 49.153248,28.107168 55.573982,30.443495 
	C55.915115,31.987965 56.285809,33.666290 56.632515,35.685200 
z"/>
<path fill="#B60402" opacity="1.000000" stroke="none" 
	d="
M138.411224,55.328503 
	C134.206528,53.267368 130.407684,51.335297 126.310455,49.236092 
	C126.012329,48.613743 126.012596,48.158520 126.348854,47.354279 
	C127.123283,47.004013 127.561707,47.002769 128.000137,47.001526 
	C131.309738,48.347363 134.681595,49.561989 137.904190,51.091206 
	C139.667160,51.927799 141.177750,53.296234 142.444901,55.457569 
	C141.235626,55.457569 140.026367,55.457569 138.411224,55.328503 
z"/>
<path fill="#070100" opacity="1.000000" stroke="none" 
	d="
M94.990707,71.965019 
	C92.939369,71.796265 90.888031,71.627518 88.065292,71.421036 
	C86.466095,71.399773 85.638283,71.416237 84.945877,71.104034 
	C86.697159,69.497261 88.313042,68.219147 90.133644,67.098206 
	C91.240250,66.246689 92.142136,65.238007 93.044029,64.229324 
	C93.044029,64.229324 93.498260,64.191086 93.918991,64.260033 
	C94.607666,64.483665 94.852493,64.668892 95.066132,65.262428 
	C95.031013,66.145256 95.003975,66.650322 94.976944,67.155388 
	C95.217293,67.965782 95.457642,68.776184 95.804550,70.087212 
	C95.604309,71.046906 95.297508,71.505959 94.990707,71.965019 
z"/>
<path fill="#900F0E" opacity="1.000000" stroke="none" 
	d="
M72.537537,32.908234 
	C75.008186,34.379055 77.163406,35.891815 79.407738,37.702621 
	C79.532135,38.879517 79.567413,39.758362 79.432831,40.930599 
	C76.214485,39.252792 73.166008,37.281593 69.882034,35.021873 
	C70.505058,34.138962 71.363579,33.544571 72.537537,32.908234 
z"/>
<path fill="#6D0604" opacity="1.000000" stroke="none" 
	d="
M31.085896,44.710716 
	C29.329678,44.002605 27.357445,43.017380 25.135456,42.059067 
	C23.559736,40.012661 22.233772,37.939335 20.885855,35.234516 
	C20.921272,34.390671 20.978645,34.178326 21.036016,33.965984 
	C24.313971,37.455193 27.591923,40.944397 31.085896,44.710716 
z"/>
<path fill="#AE0D05" opacity="1.000000" stroke="none" 
	d="
M128.060699,46.652473 
	C127.561707,47.002769 127.123283,47.004013 126.356659,47.013561 
	C126.028458,47.021870 125.954109,46.968586 125.788956,46.621059 
	C124.159958,42.872437 123.217163,39.547039 126.984764,36.905994 
	C127.206345,38.091366 127.427917,39.276741 127.868645,40.752285 
	C128.098953,42.796108 128.110107,44.549767 128.060699,46.652473 
z"/>
<path fill="#A50E06" opacity="1.000000" stroke="none" 
	d="
M84.733292,46.161148 
	C84.616341,47.940594 84.255035,49.627155 83.893723,51.313717 
	C82.293640,50.753483 80.693558,50.193249 78.966400,49.290752 
	C78.839333,48.948486 78.918549,48.455833 79.336014,48.217102 
	C81.168594,47.280987 82.583717,46.583595 83.998840,45.886208 
	C84.162209,45.946892 84.325569,46.007576 84.733292,46.161148 
z"/>
<path fill="#B60402" opacity="1.000000" stroke="none" 
	d="
M95.074211,64.884666 
	C94.852493,64.668892 94.607666,64.483665 94.141510,64.210739 
	C95.088867,63.725979 96.234444,63.359459 97.700546,63.036182 
	C99.162956,64.239037 100.304840,65.398643 101.679420,66.759888 
	C101.863068,67.846375 101.814026,68.731239 101.737938,70.103989 
	C100.095070,68.605186 98.840828,67.460930 97.113762,65.931854 
	C96.118698,65.326241 95.596451,65.105453 95.074211,64.884666 
z"/>
<path fill="#190100" opacity="1.000000" stroke="none" 
	d="
M123.926086,66.233978 
	C124.686111,67.580894 125.117844,68.962616 125.549576,70.344337 
	C124.392181,70.600914 123.234779,70.857491 122.077385,71.114067 
	C122.584183,69.498978 123.090988,67.883881 123.926086,66.233978 
z"/>
<path fill="#9C0E08" opacity="1.000000" stroke="none" 
	d="
M109.959892,82.241211 
	C110.254311,81.380295 110.548737,80.519379 110.923279,79.326492 
	C112.266739,80.416542 113.530075,81.838570 114.695229,83.774261 
	C113.711998,84.545235 112.826965,84.802544 111.697723,84.882812 
	C110.955643,83.884254 110.457764,83.062729 109.959892,82.241211 
z"/>
<path fill="#4F4F4F" opacity="1.000000" stroke="none" 
	d="
M80.160141,21.499512 
	C79.769157,22.411041 79.416306,23.018242 78.857849,23.794577 
	C75.521759,21.469530 76.614502,19.628635 79.706970,17.826811 
	C79.892044,19.095694 80.045158,20.145439 80.160141,21.499512 
z"/>
<path fill="#370402" opacity="1.000000" stroke="none" 
	d="
M16.771212,27.004944 
	C16.957052,27.831240 16.982204,28.439280 17.031090,29.502562 
	C15.221851,28.917812 13.388881,27.877821 11.555911,26.837830 
	C11.820792,26.315281 12.085673,25.792732 12.350554,25.270185 
	C13.770544,25.775684 15.190534,26.281185 16.771212,27.004944 
z"/>
<path fill="#891209" opacity="1.000000" stroke="none" 
	d="
M111.941925,85.059853 
	C112.826965,84.802544 113.711998,84.545235 114.861374,84.058296 
	C115.545189,83.872101 115.964668,83.915535 116.696228,84.010498 
	C117.249672,84.855759 117.491035,85.649490 117.458275,86.727737 
	C116.119766,87.015648 115.055389,87.019028 113.704773,86.927597 
	C112.926338,86.241806 112.434135,85.650833 111.941925,85.059853 
z"/>
<path fill="#370402" opacity="1.000000" stroke="none" 
	d="
M20.855101,33.704758 
	C20.978645,34.178326 20.921272,34.390671 20.755140,34.916500 
	C19.427498,33.724392 18.208616,32.218803 17.019623,30.333660 
	C18.257738,31.117247 19.465961,32.280388 20.855101,33.704758 
z"/>
<path fill="#780E0D" opacity="1.000000" stroke="none" 
	d="
M83.757401,45.688026 
	C82.583717,46.583595 81.168594,47.280987 79.365532,47.969364 
	C78.981895,47.524761 78.986198,47.089169 78.995041,46.326546 
	C80.505035,45.829624 82.010498,45.659740 83.757401,45.688026 
z"/>
<path fill="#150302" opacity="1.000000" stroke="none" 
	d="
M48.038437,111.169571 
	C48.650177,110.086998 49.310833,109.250397 49.963402,109.063995 
	C49.961559,110.324409 49.967815,110.934608 49.974072,111.544815 
	C49.345169,111.501724 48.716263,111.458633 48.038437,111.169571 
z"/>
<path fill="#190100" opacity="1.000000" stroke="none" 
	d="
M121.978081,58.630241 
	C122.715279,57.928165 123.574585,57.525612 124.726471,57.103821 
	C124.443672,60.414131 124.251404,60.535679 121.978081,58.630241 
z"/>
<path fill="#891209" opacity="1.000000" stroke="none" 
	d="
M70.993828,114.064400 
	C70.991844,114.514420 70.989861,114.964432 70.971352,115.752029 
	C70.315254,115.275482 69.675674,114.461342 69.038574,113.319443 
	C69.472076,113.000847 69.903084,113.010002 70.664879,113.282349 
	C70.995049,113.718491 70.994438,113.891449 70.993828,114.064400 
z"/>
<path fill="#150302" opacity="1.000000" stroke="none" 
	d="
M89.932007,57.231453 
	C89.565216,57.825958 88.909927,58.416084 88.158966,58.753216 
	C88.590034,58.075840 89.116768,57.651455 89.932007,57.231453 
z"/>
<path fill="#9E120A" opacity="1.000000" stroke="none" 
	d="
M95.271896,72.175552 
	C95.297508,71.505959 95.604309,71.046906 96.015411,70.328835 
	C96.518440,70.765282 96.917160,71.460732 97.464066,72.429245 
	C96.925850,72.596901 96.239464,72.491501 95.271896,72.175552 
z"/>
<path fill="#4F4F4F" opacity="1.000000" stroke="none" 
	d="
M82.378464,26.892830 
	C81.863144,26.469238 81.684441,26.084566 81.605759,25.497835 
	C82.286400,25.707174 82.867035,26.118568 83.447662,26.529964 
	C83.203468,26.663893 82.959274,26.797819 82.378464,26.892830 
z"/>
<path fill="#B60402" opacity="1.000000" stroke="none" 
	d="
M144.365601,55.327034 
	C144.283875,55.927032 143.928497,56.311241 143.573120,56.695442 
	C143.333435,56.301598 143.093735,55.907753 142.854034,55.513912 
	C143.266678,55.379692 143.679321,55.245468 144.365601,55.327034 
z"/>
<path fill="#66110A" opacity="1.000000" stroke="none" 
	d="
M38.722153,89.158371 
	C39.029354,89.517662 38.990028,89.903610 38.875160,90.461334 
	C38.265984,90.309074 37.732349,89.985031 37.104267,89.330490 
	C37.009819,88.999985 36.997677,89.022514 36.997677,89.022514 
	C37.456993,89.076683 37.916306,89.130852 38.722153,89.158371 
z"/>
<path fill="#741008" opacity="1.000000" stroke="none" 
	d="
M84.994125,59.004913 
	C84.389015,58.499111 83.791992,57.986202 83.121727,57.170181 
	C83.598061,56.952824 84.147629,57.038578 84.899086,57.645302 
	C85.072861,58.438965 85.044754,58.711647 85.016647,58.984333 
	C85.016647,58.984333 85.002228,58.997803 84.994125,59.004913 
z"/>
<path fill="#705F4C" opacity="1.000000" stroke="none" 
	d="
M50.338150,111.528076 
	C49.967815,110.934608 49.961559,110.324409 50.043987,109.259773 
	C50.669266,109.330025 51.205864,109.854713 51.879539,110.626968 
	C51.578487,111.086800 51.140358,111.299065 50.338150,111.528076 
z"/>
<path fill="#370402" opacity="1.000000" stroke="none" 
	d="
M95.066132,65.262428 
	C95.596451,65.105453 96.118698,65.326241 96.818344,65.774818 
	C96.494301,66.293732 95.992836,66.584846 95.234161,67.015671 
	C95.003975,66.650322 95.031013,66.145256 95.066132,65.262428 
z"/>
<path fill="#780E0D" opacity="1.000000" stroke="none" 
	d="
M85.435852,58.972916 
	C85.044754,58.711647 85.072861,58.438965 85.154358,57.756218 
	C85.846107,57.655029 86.484467,57.963902 87.330353,58.575562 
	C86.976944,58.906063 86.416000,58.933781 85.435852,58.972916 
z"/>
<path fill="#4F4F4F" opacity="1.000000" stroke="none" 
	d="
M81.880951,34.757435 
	C81.744774,34.731007 81.636803,34.342411 81.777588,34.198021 
	C82.063278,34.209454 82.208183,34.365280 82.353096,34.521103 
	C82.241104,34.608688 82.129112,34.696278 81.880951,34.757435 
z"/>
<path fill="#5D100B" opacity="1.000000" stroke="none" 
	d="
M49.114368,73.213684 
	C49.268204,73.166649 49.502583,73.363274 49.859943,73.764603 
	C49.679302,73.869904 49.416634,73.699249 49.114368,73.213684 
z"/>
<path fill="#66110A" opacity="1.000000" stroke="none" 
	d="
M37.021706,88.993713 
	C37.033592,88.987434 36.926395,88.979507 36.962036,89.001007 
	C36.997677,89.022514 37.009819,88.999985 37.021706,88.993713 
z"/>
<path fill="#150302" opacity="1.000000" stroke="none" 
	d="
M91.192604,56.247433 
	C91.461571,56.133041 91.404663,56.574490 91.379761,56.795647 
	C91.150536,57.055870 90.946228,57.094933 90.431335,57.164673 
	C90.388374,56.917511 90.656006,56.639668 91.192604,56.247433 
z"/>
<path fill="#370402" opacity="1.000000" stroke="none" 
	d="
M88.567787,55.473469 
	C88.610130,55.539616 88.525444,55.407322 88.567787,55.473469 
z"/>
<path fill="#901009" opacity="1.000000" stroke="none" 
	d="
M60.184795,67.963120 
	C58.696934,69.298737 57.390141,71.384521 55.679562,71.797409 
	C52.988632,72.446907 50.507137,71.309418 50.354294,67.290245 
	C49.756950,65.132515 48.945396,63.588799 48.133842,62.045074 
	C47.708244,61.369373 47.265617,60.703724 46.859756,60.016365 
	C43.736126,54.726257 43.976070,54.177795 50.827858,52.340778 
	C52.248642,54.029728 53.141037,55.472881 53.679810,56.869553 
	C51.885979,56.622707 50.445763,56.422348 48.381363,56.135155 
	C51.511749,60.122601 53.903980,63.372673 56.545620,66.405510 
	C57.294403,67.265182 58.770821,67.491081 59.980080,67.988762 
	C60.046619,67.969887 60.184795,67.963120 60.184795,67.963120 
z"/>
<path fill="#76100D" opacity="1.000000" stroke="none" 
	d="
M75.581604,49.994232 
	C75.150681,51.494781 74.311035,53.007500 72.818298,54.760162 
	C70.771973,55.007900 69.378723,55.015697 67.613472,55.019215 
	C66.497116,55.014084 65.752769,55.013233 64.680786,54.998947 
	C63.916695,54.974327 63.480240,54.963139 63.036629,54.581566 
	C63.020161,53.470333 63.010857,52.729492 63.000999,51.589790 
	C63.000141,50.126373 62.999840,49.061813 62.999542,47.997253 
	C63.606293,47.060413 64.213043,46.123573 64.832481,45.167145 
	C66.084663,47.096680 66.890671,49.778770 68.555435,50.512547 
	C70.340149,51.299198 72.932816,50.252815 75.581604,49.994232 
z"/>
<path fill="#150302" opacity="1.000000" stroke="none" 
	d="
M83.641747,62.844444 
	C84.435234,62.817406 84.879082,62.880337 85.589584,63.238991 
	C85.232346,65.241684 84.955025,67.221146 83.887291,68.579147 
	C82.814713,69.943314 80.954842,70.688469 79.121704,71.756050 
	C77.503242,72.129639 76.203072,72.452080 74.719315,72.730225 
	C74.535736,72.685936 74.160713,72.641129 74.024368,72.492020 
	C73.681892,72.169464 73.461029,72.017403 73.225441,71.886726 
	C73.714310,70.836807 74.203178,69.786888 74.862518,68.497955 
	C77.174576,68.057167 79.766602,68.726707 79.659744,64.968941 
	C79.641457,64.325722 82.020523,63.614323 83.641747,62.844444 
z"/>
<path fill="#86140A" opacity="1.000000" stroke="none" 
	d="
M63.001549,51.988651 
	C63.010857,52.729492 63.020161,53.470333 62.674660,54.601616 
	C61.207783,55.641525 60.095718,56.290993 58.570480,56.947281 
	C56.782681,56.941410 55.408054,56.928722 54.033428,56.916039 
	C53.141037,55.472881 52.248642,54.029728 51.189537,52.314331 
	C50.709908,49.867989 50.396988,47.693886 50.084064,45.519783 
	C50.668591,45.502922 51.253120,45.486061 51.924179,46.132172 
	C52.541725,51.846016 54.465401,53.439407 59.185223,52.702362 
	C60.463314,52.502777 61.729759,52.228592 63.001549,51.988651 
z"/>
<path fill="#5E1615" opacity="1.000000" stroke="none" 
	d="
M72.035019,61.904110 
	C72.064430,62.355534 72.093849,62.806953 72.162331,63.595070 
	C69.274681,67.578911 66.106697,70.580658 60.546944,68.058151 
	C60.184795,67.963120 60.046619,67.969887 60.014603,67.631317 
	C60.646294,65.796837 61.310001,64.300934 62.316364,62.841560 
	C63.115192,62.930763 63.571373,62.983425 63.990318,63.318626 
	C64.444206,64.048233 64.935326,64.495293 65.705460,64.808731 
	C66.627876,63.358280 67.271278,62.041451 68.280167,60.730942 
	C69.134079,60.719574 69.622513,60.701881 70.294144,60.912956 
	C70.996567,61.395847 71.515785,61.649979 72.035019,61.904110 
z"/>
<path fill="#76140B" opacity="1.000000" stroke="none" 
	d="
M63.000996,51.589790 
	C61.729759,52.228592 60.463314,52.502777 59.185223,52.702362 
	C54.465401,53.439407 52.541725,51.846016 52.017181,46.389923 
	C55.402279,46.655235 58.780907,47.325771 62.579536,47.996780 
	C62.999840,49.061813 63.000141,50.126373 63.000996,51.589790 
z"/>
<path fill="#A50E06" opacity="1.000000" stroke="none" 
	d="
M56.761349,97.128860 
	C55.784882,93.131096 59.459808,93.475029 61.689167,92.018784 
	C64.081085,91.529678 66.163689,91.202728 69.016510,90.866943 
	C70.525536,90.901299 71.264343,90.944473 72.002762,91.259514 
	C72.002861,91.712540 72.003334,91.893707 71.737328,92.305588 
	C68.654991,93.695053 65.839127,94.853806 62.640064,96.084457 
	C60.425026,96.480522 58.593189,96.804688 56.761349,97.128860 
z"/>
<path fill="#71120B" opacity="1.000000" stroke="none" 
	d="
M72.872162,71.983665 
	C73.461029,72.017403 73.681892,72.169464 73.843658,72.819427 
	C71.868988,76.865593 69.938698,80.435242 68.063820,84.328339 
	C68.424500,85.478851 68.729774,86.305939 69.035583,87.360138 
	C69.036118,87.587257 69.019913,88.041199 69.019913,88.041199 
	C63.699665,84.766731 65.714317,76.602989 72.872162,71.983665 
z"/>
<path fill="#6D0604" opacity="1.000000" stroke="none" 
	d="
M33.226913,53.243820 
	C32.992050,51.616009 32.983269,50.219505 32.999527,48.404930 
	C34.917645,50.052551 36.810722,52.118240 38.899212,54.425980 
	C38.844490,55.301426 38.594357,55.934818 38.121452,56.827988 
	C36.416786,55.883556 34.934887,54.679340 33.226913,53.243820 
z"/>
<path fill="#394061" opacity="1.000000" stroke="none" 
	d="
M47.986595,62.284332 
	C48.945396,63.588799 49.756950,65.132515 50.362129,66.922699 
	C49.381985,66.801613 48.608215,66.434059 48.230316,65.795486 
	C48.114964,65.020180 47.603737,64.515884 47.092506,64.011597 
	C47.341454,63.515591 47.590397,63.019588 47.986595,62.284332 
z"/>
<path fill="#5E1615" opacity="1.000000" stroke="none" 
	d="
M69.022842,88.383850 
	C69.019913,88.041199 69.036118,87.587257 69.322136,87.485031 
	C70.703323,88.534050 71.798500,89.685287 72.671074,90.874504 
	C72.448479,90.912483 72.003151,90.987656 72.003151,90.987656 
	C71.264343,90.944473 70.525536,90.901299 69.420013,90.814804 
	C69.044113,90.089828 69.034943,89.408165 69.022842,88.383850 
z"/>
<path fill="#B1AFAF" opacity="1.000000" stroke="none" 
	d="
M47.062363,64.249924 
	C47.603737,64.515884 48.114964,65.020180 48.288177,65.529572 
	C47.644188,65.185867 47.338200,64.837051 47.062363,64.249924 
z"/>
<path fill="#5D100B" opacity="1.000000" stroke="none" 
	d="
M60.990715,73.984932 
	C60.979858,73.971367 61.145519,73.766449 61.145519,73.766449 
	C61.145519,73.766449 61.145588,73.941040 61.087242,73.980515 
	C61.028896,74.019981 61.001572,73.998497 60.990715,73.984932 
z"/>
<path fill="#841508" opacity="1.000000" stroke="none" 
	d="
M109.006966,57.067924 
	C107.592140,56.778114 106.177322,56.488304 104.147049,55.909004 
	C102.679039,55.418613 101.826477,55.217712 100.973907,55.016808 
	C100.973907,55.016808 101.006241,55.020889 101.019630,54.662971 
	C102.980316,47.526989 108.133156,46.480659 114.145737,46.971634 
	C115.904480,47.162918 117.663216,47.354202 119.365379,47.791870 
	C115.874855,51.048138 112.440910,54.058033 109.006966,57.067924 
z"/>
<path fill="#7C1409" opacity="1.000000" stroke="none" 
	d="
M127.159531,36.646454 
	C123.217163,39.547039 124.159958,42.872437 125.751236,46.595203 
	C122.485344,46.060143 119.092018,45.203411 115.137833,43.983955 
	C114.357269,42.568695 113.749031,40.690594 113.974693,40.584396 
	C119.593605,37.939987 125.300560,35.482643 130.991913,32.992149 
	C129.772705,34.123737 128.553497,35.255329 127.159531,36.646454 
z"/>
<path fill="#630E08" opacity="1.000000" stroke="none" 
	d="
M130.936096,32.736244 
	C125.300560,35.482643 119.593605,37.939987 113.974693,40.584396 
	C113.749031,40.690594 114.357269,42.568695 114.803146,43.818733 
	C112.096657,44.016239 109.163986,44.016239 105.934212,44.016239 
	C109.560265,37.008362 122.552788,31.237329 130.936096,32.736244 
z"/>
<path fill="#741008" opacity="1.000000" stroke="none" 
	d="
M113.781120,46.764927 
	C108.133156,46.480659 102.980316,47.526989 101.004860,54.672054 
	C99.101349,54.619686 97.225990,54.200317 95.203247,53.464600 
	C99.734573,46.935390 105.728752,44.387558 113.781120,46.764927 
z"/>
<path fill="#8F0C04" opacity="1.000000" stroke="none" 
	d="
M109.221237,57.250057 
	C112.440910,54.058033 115.874855,51.048138 119.672134,48.007286 
	C120.035477,47.976322 120.007095,48.001873 120.256729,48.193546 
	C121.344093,48.595383 122.181824,48.805546 123.019562,49.015713 
	C123.019005,49.456532 123.018448,49.897354 123.012909,50.668736 
	C120.898361,51.949337 118.788788,52.899376 116.009392,54.000992 
	C114.227859,55.435436 113.116150,56.718311 112.004440,58.001190 
	C111.837036,58.006489 111.669617,58.011787 111.251266,58.029919 
	C110.478714,57.839230 109.957108,57.635708 109.221237,57.250057 
z"/>
<path fill="#841508" opacity="1.000000" stroke="none" 
	d="
M122.771622,48.800320 
	C122.181824,48.805546 121.344093,48.595383 120.252655,48.178230 
	C120.840530,48.175800 121.682106,48.380363 122.771622,48.800320 
z"/>
<path fill="#9C0E08" opacity="1.000000" stroke="none" 
	d="
M115.024910,113.023216 
	C109.880112,118.957626 103.072914,120.545692 95.306747,119.968109 
	C94.991684,119.309074 94.989777,119.127235 95.312996,118.944183 
	C96.071121,118.939003 96.504120,118.935028 97.336182,118.924866 
	C102.151009,117.270973 106.566765,115.623276 110.989151,113.982277 
	C110.995781,113.988976 110.976761,113.970917 111.319107,113.916565 
	C112.782608,113.582542 113.903755,113.302879 115.024910,113.023216 
z"/>
<path fill="#891209" opacity="1.000000" stroke="none" 
	d="
M115.325096,112.918755 
	C113.903755,113.302879 112.782608,113.582542 111.422165,113.608505 
	C112.790619,111.573418 114.398346,109.792030 116.295242,107.879333 
	C117.388313,107.497498 118.192215,107.246964 118.996124,106.996429 
	C119.001457,107.448135 119.006790,107.899834 119.021179,108.690781 
	C117.895248,110.291458 116.760262,111.552872 115.325096,112.918755 
z"/>
<path fill="#891209" opacity="1.000000" stroke="none" 
	d="
M94.987862,118.945389 
	C94.989777,119.127235 94.991684,119.309074 94.995598,119.764099 
	C92.631912,120.033859 90.266212,120.030441 87.458084,120.029480 
	C86.752449,119.833900 86.513298,119.610176 86.480423,118.956932 
	C89.437714,118.683868 92.212791,118.814629 94.987862,118.945389 
z"/>
<path fill="#9A0803" opacity="1.000000" stroke="none" 
	d="
M112.333694,57.927536 
	C113.116150,56.718311 114.227859,55.435436 115.669205,54.080902 
	C114.886879,55.290787 113.774918,56.572334 112.333694,57.927536 
z"/>
<path fill="#9C0E08" opacity="1.000000" stroke="none" 
	d="
M56.755463,97.346695 
	C58.593189,96.804688 60.425026,96.480522 62.633610,96.420425 
	C63.008690,97.133263 63.007030,97.582016 63.005371,98.030777 
	C61.106693,98.141998 59.208015,98.253220 56.987419,98.178299 
	C56.665497,97.992157 56.749577,97.564522 56.755463,97.346695 
z"/>
<path fill="#901009" opacity="1.000000" stroke="none" 
	d="
M72.277145,61.713566 
	C71.515785,61.649979 70.996567,61.395847 70.465317,60.682053 
	C71.299355,59.150745 72.145416,58.079098 72.996094,57.003380 
	C73.000702,56.999310 73.015388,56.984745 73.015388,56.984745 
	C77.158195,58.968452 75.224037,60.287853 72.277145,61.713566 
z"/>
<path fill="#901009" opacity="1.000000" stroke="none" 
	d="
M67.985474,55.023495 
	C69.378723,55.015697 70.771973,55.007900 72.582214,55.000832 
	C73.001457,55.442764 73.003716,55.883965 73.010681,56.654957 
	C73.015388,56.984745 73.000702,56.999310 72.616081,56.997955 
	C70.816132,56.338898 69.400803,55.681194 67.985474,55.023495 
z"/>
<path fill="#6D0604" opacity="1.000000" stroke="none" 
	d="
M32.981300,47.679783 
	C32.701832,47.461758 32.385365,46.936172 32.034981,46.092361 
	C32.315479,46.306831 32.629890,46.839527 32.981300,47.679783 
z"/>
<path fill="#76140B" opacity="1.000000" stroke="none" 
	d="
M119.007294,106.754517 
	C118.192215,107.246964 117.388313,107.497498 116.320572,107.482277 
	C119.071182,100.106361 118.264908,93.387032 113.991013,87.022415 
	C115.055389,87.019028 116.119766,87.015648 117.582596,87.014893 
	C118.244659,87.194580 118.481995,87.401741 118.869026,88.198196 
	C122.809044,94.516502 121.463791,100.272827 119.035561,106.028557 
	C119.035561,106.028557 119.018471,106.512604 119.007294,106.754517 
z"/>
<path fill="#891209" opacity="1.000000" stroke="none" 
	d="
M119.359039,105.909859 
	C121.463791,100.272827 122.809044,94.516502 119.016113,88.383713 
	C125.177483,93.261948 125.017609,100.820160 119.359039,105.909859 
z"/>
<path fill="#810D09" opacity="1.000000" stroke="none" 
	d="
M79.439987,71.704895 
	C80.954842,70.688469 82.814713,69.943314 83.887291,68.579147 
	C84.955025,67.221146 85.232346,65.241684 85.924683,63.268681 
	C87.413521,63.649601 88.833923,64.296555 90.515869,65.238510 
	C90.494583,66.002686 90.211754,66.471855 89.928925,66.941032 
	C88.313042,68.219147 86.697159,69.497261 84.784927,71.317261 
	C83.686844,72.275139 82.885101,72.691132 81.796188,72.866631 
	C80.819344,72.319054 80.129662,72.011971 79.439987,71.704895 
z"/>
<path fill="#190100" opacity="1.000000" stroke="none" 
	d="
M90.133636,67.098206 
	C90.211754,66.471855 90.494583,66.002686 90.856071,65.270859 
	C91.442116,64.721222 91.949501,64.434235 92.750458,64.188286 
	C92.142136,65.238007 91.240250,66.246689 90.133636,67.098206 
z"/>
<path fill="#741008" opacity="1.000000" stroke="none" 
	d="
M101.231575,55.224346 
	C101.826477,55.217712 102.679039,55.418613 103.795662,55.825470 
	C103.202888,55.831577 102.346069,55.631733 101.231575,55.224346 
z"/>
<path fill="#5C140C" opacity="1.000000" stroke="none" 
	d="
M71.336983,114.152489 
	C70.994438,113.891449 70.995049,113.718491 70.988312,113.286499 
	C69.669334,110.262001 68.357697,107.496559 67.404472,104.357468 
	C70.177238,102.988495 72.591583,101.993179 75.245178,101.000107 
	C75.484428,101.002350 75.963066,101.007248 76.112038,101.249481 
	C76.514099,102.000084 76.767189,102.508453 76.941406,103.339172 
	C75.722244,105.078445 74.581955,106.495377 72.617798,108.936058 
	C76.431313,108.544601 79.231094,108.257210 82.018646,107.980316 
	C82.006401,107.990822 82.026985,107.978622 82.026810,108.246742 
	C82.030533,108.693558 82.034424,108.872261 82.243530,109.291626 
	C87.050163,109.288727 91.671432,109.205048 96.232857,108.639038 
	C96.964859,108.548210 97.429451,106.302330 98.431656,105.053940 
	C100.225197,105.035370 101.604759,105.015564 103.280045,104.830643 
	C105.437599,102.577911 107.306175,100.496269 109.159340,98.400993 
	C111.048119,96.265465 111.891411,94.530296 108.717644,92.395729 
	C107.510727,91.583992 107.610497,88.829407 107.467705,86.995590 
	C113.245552,89.363068 116.074013,94.281143 114.348244,99.197998 
	C112.007904,105.865829 108.231079,111.602379 100.780624,113.125008 
	C94.864639,114.334045 88.771286,114.660629 82.772911,115.495628 
	C81.798721,115.631241 80.908905,116.373032 79.980087,116.834641 
	C77.213440,115.969948 74.446785,115.105263 71.336983,114.152489 
z"/>
<path fill="#86140A" opacity="1.000000" stroke="none" 
	d="
M63.211555,98.249466 
	C63.007030,97.582016 63.008690,97.133263 63.016808,96.348526 
	C65.839127,94.853806 68.654991,93.695053 71.895828,92.390961 
	C72.511765,91.775925 72.702721,91.306229 72.893669,90.836525 
	C71.798500,89.685287 70.703323,88.534050 69.321602,87.257919 
	C68.729774,86.305939 68.424500,85.478851 68.395584,84.253265 
	C70.188995,83.070457 71.706055,82.286140 74.084717,81.056381 
	C74.595604,85.051071 75.017197,88.347588 75.319679,91.920830 
	C74.844681,93.139000 74.488808,94.080444 73.999367,95.103981 
	C73.642906,95.444397 73.616653,95.726761 73.828415,96.243874 
	C73.869789,96.454567 73.973579,96.871277 73.950424,97.149231 
	C73.909721,97.612289 73.892189,97.797394 73.505966,98.013229 
	C70.757629,98.706139 68.377975,99.368332 65.998329,100.030518 
	C65.138130,99.509727 64.277931,98.988937 63.211555,98.249466 
z"/>
<path fill="#6C130B" opacity="1.000000" stroke="none" 
	d="
M65.998901,100.273438 
	C68.377975,99.368332 70.757629,98.706139 73.780891,98.019577 
	C74.607010,97.990410 74.789520,97.985603 74.993576,97.984177 
	C75.015121,97.987541 75.017311,98.031105 75.005585,98.401611 
	C74.997879,99.514038 75.001907,100.255951 75.005936,100.997864 
	C72.591583,101.993179 70.177238,102.988495 67.380623,103.989899 
	C66.998352,103.995979 67.000000,104.000244 66.984627,103.675552 
	C66.646317,102.567970 66.323380,101.785080 66.000443,101.002197 
	C66.000443,101.002197 65.999474,100.516357 65.998901,100.273438 
z"/>
<path fill="#5C140C" opacity="1.000000" stroke="none" 
	d="
M65.773697,101.067635 
	C66.323380,101.785080 66.646317,102.567970 66.986488,103.677017 
	C66.518127,103.046486 66.032539,102.089775 65.773697,101.067635 
z"/>
<path fill="#313038" opacity="1.000000" stroke="none" 
	d="
M98.017670,105.052696 
	C97.429451,106.302330 96.964859,108.548210 96.232857,108.639038 
	C91.671432,109.205048 87.050163,109.288727 82.359390,109.173508 
	C82.429390,108.482765 82.348366,108.204063 82.026985,107.978622 
	C82.026985,107.978622 82.006401,107.990822 81.986465,107.666779 
	C81.937828,106.923119 81.909126,106.503494 82.093674,105.863403 
	C82.536560,105.086754 82.766220,104.530586 83.242149,103.965126 
	C83.488426,103.955841 83.981331,103.954735 84.182129,104.101196 
	C84.897362,103.801422 85.411789,103.355194 85.932709,102.448807 
	C85.682419,95.896561 87.339546,89.503441 83.048584,83.646049 
	C82.982964,82.465919 82.984131,81.675133 83.321411,80.738503 
	C84.845726,80.422379 86.033920,80.252083 87.178925,80.318985 
	C87.135742,80.556175 87.114098,81.037872 87.094841,81.260406 
	C87.075584,81.482948 87.143471,81.924500 87.380920,82.166031 
	C88.734589,82.568031 89.850815,82.728508 91.006584,82.918976 
	C91.046135,82.948975 91.137978,82.986694 91.206947,83.080727 
	C91.275917,83.174759 91.597679,83.233673 91.597679,83.233673 
	C91.597679,83.233673 91.858192,83.025444 92.012589,82.829079 
	C92.033226,81.812088 91.899467,80.991470 92.227051,80.099472 
	C95.164413,79.913559 97.640434,79.799019 100.445526,79.724205 
	C101.212090,79.710342 101.649574,79.656738 102.087067,79.603142 
	C102.087067,79.603142 102.550949,79.747963 102.912048,79.989822 
	C103.463829,80.484322 103.675453,80.718010 103.981850,81.269852 
	C105.075371,83.391403 106.095055,85.175850 107.114731,86.960304 
	C107.610497,88.829407 107.510727,91.583992 108.717644,92.395729 
	C111.891411,94.530296 111.048119,96.265465 109.159340,98.400993 
	C107.306175,100.496269 105.437599,102.577911 103.284149,104.438873 
	C103.098961,101.421783 103.272392,98.568123 99.006500,99.644180 
	C99.028000,98.227058 99.007278,97.111153 98.887360,95.668648 
	C93.759865,90.193275 91.471664,90.076080 89.389191,94.999832 
	C88.722893,97.420563 87.857803,99.837929 88.335350,101.952019 
	C88.500053,102.681160 92.008858,102.654922 93.928596,103.204453 
	C94.142540,103.852020 94.417961,104.268890 94.693382,104.685753 
	C94.887711,104.477417 95.082031,104.269081 95.276360,104.060745 
	C94.841759,103.699806 94.407166,103.338867 94.150513,102.688766 
	C95.867393,101.586510 97.406342,100.773399 98.809807,100.306183 
	C98.455437,102.118950 98.236549,103.585823 98.017670,105.052696 
M102.963135,89.510391 
	C102.727768,88.905701 102.508354,88.294205 102.253914,87.697647 
	C101.600296,86.165154 100.876328,83.320137 100.277901,83.344994 
	C97.999947,83.439606 95.760513,84.461548 93.506683,85.136940 
	C94.554626,86.806236 95.567825,88.499222 96.677414,90.126480 
	C96.923561,90.487473 97.509827,90.616539 98.314079,91.423836 
	C99.929031,92.358421 101.543983,93.292999 104.186409,94.822182 
	C103.728058,92.508820 103.496635,91.340790 102.963135,89.510391 
z"/>
<path fill="#6C130B" opacity="1.000000" stroke="none" 
	d="
M107.467712,86.995590 
	C106.095055,85.175850 105.075371,83.391403 104.338074,81.277077 
	C105.092400,80.929527 105.564339,80.911865 106.036278,80.894203 
	C107.122116,81.276176 108.207947,81.658150 109.626839,82.140671 
	C110.457764,83.062729 110.955643,83.884254 111.697723,84.882812 
	C112.434135,85.650833 112.926338,86.241806 113.704773,86.927597 
	C118.264908,93.387032 119.071182,100.106361 116.031403,107.613586 
	C114.398346,109.792030 112.790619,111.573418 111.079819,113.662857 
	C110.976761,113.970917 110.995781,113.988976 110.600288,114.009811 
	C105.782234,115.664124 101.359673,117.297592 96.937111,118.931061 
	C96.504120,118.935028 96.071121,118.939003 95.312996,118.944183 
	C92.212791,118.814629 89.437714,118.683868 86.335342,118.758690 
	C84.202751,118.382591 82.397469,117.800903 80.286133,117.026932 
	C80.908905,116.373032 81.798721,115.631241 82.772911,115.495628 
	C88.771286,114.660629 94.864639,114.334045 100.780624,113.125008 
	C108.231079,111.602379 112.007904,105.865829 114.348244,99.197998 
	C116.074013,94.281143 113.245552,89.363068 107.467712,86.995590 
z"/>
<path fill="#80170D" opacity="1.000000" stroke="none" 
	d="
M87.222107,80.081795 
	C86.033920,80.252083 84.845726,80.422379 83.178558,80.431259 
	C81.688622,79.955307 80.560699,79.183212 79.687233,79.406502 
	C76.167847,80.306168 74.589363,79.531113 75.459717,75.599648 
	C75.649780,74.741096 75.107750,73.720490 74.902893,72.774513 
	C76.203072,72.452080 77.503242,72.129639 79.121704,71.756050 
	C80.129662,72.011971 80.819344,72.319054 81.914047,73.181351 
	C84.202858,73.864128 86.086632,73.991707 87.970406,74.119278 
	C88.405334,74.113930 88.840256,74.108582 89.732880,74.380463 
	C91.462395,74.794586 92.734215,74.931465 94.006035,75.068344 
	C94.425819,75.083961 94.845596,75.099571 95.698860,75.390060 
	C96.758354,76.099709 97.384361,76.534500 98.010368,76.969292 
	C98.430878,77.001259 98.851395,77.033226 99.611946,77.406639 
	C100.006813,78.393547 100.061638,79.039009 100.116455,79.684471 
	C97.640434,79.799019 95.164413,79.913559 91.950203,80.083969 
	C90.845093,80.178238 90.478180,80.216637 89.752151,80.191689 
	C88.669403,80.112831 87.945755,80.097313 87.222107,80.081795 
z"/>
<path fill="#9E120A" opacity="1.000000" stroke="none" 
	d="
M87.981651,73.804527 
	C86.086632,73.991707 84.202858,73.864128 82.201218,73.421844 
	C82.885101,72.691132 83.686844,72.275139 84.649536,71.645927 
	C85.638283,71.416237 86.466095,71.399773 87.691437,71.500534 
	C88.056953,72.241776 88.024925,72.865768 87.981651,73.804527 
z"/>
<path fill="#9E120A" opacity="1.000000" stroke="none" 
	d="
M93.725060,74.845444 
	C92.734215,74.931465 91.462395,74.794586 90.058975,74.371376 
	C91.099609,74.264214 92.271851,74.443382 93.725060,74.845444 
z"/>
<path fill="#9E120A" opacity="1.000000" stroke="none" 
	d="
M100.445526,79.724205 
	C100.061638,79.039009 100.006813,78.393547 99.927643,77.426064 
	C100.598427,77.736404 101.293564,78.368774 102.037880,79.302139 
	C101.649574,79.656738 101.212090,79.710342 100.445526,79.724205 
z"/>
<path fill="#9E120A" opacity="1.000000" stroke="none" 
	d="
M105.935539,80.627197 
	C105.564339,80.911865 105.092400,80.929527 104.264236,80.939972 
	C103.675453,80.718010 103.463829,80.484322 103.152260,80.026413 
	C103.965851,80.000832 104.900330,80.180519 105.935539,80.627197 
z"/>
<path fill="#9E120A" opacity="1.000000" stroke="none" 
	d="
M97.911362,76.682114 
	C97.384361,76.534500 96.758354,76.099709 96.013924,75.392342 
	C96.534462,75.544815 97.173416,75.969872 97.911362,76.682114 
z"/>
<path fill="#A50E06" opacity="1.000000" stroke="none" 
	d="
M67.613472,55.019215 
	C69.400803,55.681194 70.816132,56.338898 72.611465,57.002022 
	C72.145416,58.079098 71.299355,59.150745 70.282120,60.453293 
	C69.622513,60.701881 69.134079,60.719574 68.106552,60.506866 
	C64.369461,58.169502 63.349842,60.881607 61.973713,62.805023 
	C61.310001,64.300934 60.646294,65.796837 59.948059,67.650192 
	C58.770821,67.491081 57.294403,67.265182 56.545620,66.405510 
	C53.903980,63.372673 51.511749,60.122601 48.381363,56.135155 
	C50.445763,56.422348 51.885979,56.622707 53.679810,56.869553 
	C55.408054,56.928722 56.782681,56.941410 58.970699,56.961487 
	C61.525532,56.316708 63.266975,55.664547 65.008415,55.012383 
	C65.752769,55.013233 66.497116,55.014084 67.613472,55.019215 
z"/>
<path fill="#901009" opacity="1.000000" stroke="none" 
	d="
M64.680786,54.998947 
	C63.266975,55.664547 61.525532,56.316708 59.383873,56.954666 
	C60.095718,56.290993 61.207783,55.641525 62.681816,54.972008 
	C63.480240,54.963139 63.916695,54.974327 64.680786,54.998947 
z"/>
<path fill="#7C150B" opacity="1.000000" stroke="none" 
	d="
M74.719315,72.730225 
	C75.107750,73.720490 75.649780,74.741096 75.459717,75.599648 
	C74.589363,79.531113 76.167847,80.306168 79.687233,79.406502 
	C80.560699,79.183212 81.688622,79.955307 82.842438,80.577103 
	C82.984131,81.675133 82.982964,82.465919 82.810829,83.889191 
	C80.239510,86.895813 77.839157,89.269958 75.438797,91.644104 
	C75.017197,88.347588 74.595604,85.051071 74.084717,81.056381 
	C71.706055,82.286140 70.188995,83.070457 68.340179,83.929832 
	C69.938698,80.435242 71.868988,76.865593 73.979996,72.968536 
	C74.160713,72.641129 74.535736,72.685936 74.719315,72.730225 
z"/>
<path fill="#901009" opacity="1.000000" stroke="none" 
	d="
M62.316364,62.841560 
	C63.349842,60.881607 64.369461,58.169502 67.741074,60.500549 
	C67.271278,62.041451 66.627876,63.358280 65.558281,64.536194 
	C64.763908,63.943554 64.395729,63.489822 64.027550,63.036091 
	C63.571373,62.983425 63.115192,62.930763 62.316364,62.841560 
z"/>
<path fill="#313038" opacity="1.000000" stroke="none" 
	d="
M63.990318,63.318626 
	C64.395729,63.489822 64.763908,63.943554 65.279266,64.669815 
	C64.935326,64.495293 64.444206,64.048233 63.990318,63.318626 
z"/>
<path fill="#9C0E08" opacity="1.000000" stroke="none" 
	d="
M72.671074,90.874504 
	C72.702721,91.306229 72.511765,91.775925 72.162308,92.160248 
	C72.003334,91.893707 72.002861,91.712540 72.002762,91.259514 
	C72.003151,90.987656 72.448479,90.912483 72.671074,90.874504 
z"/>
<path fill="#891209" opacity="1.000000" stroke="none" 
	d="
M97.336182,118.924866 
	C101.359673,117.297592 105.782234,115.664124 110.593658,114.003113 
	C106.566765,115.623276 102.151009,117.270973 97.336182,118.924866 
z"/>
<path fill="#424144" opacity="1.000000" stroke="none" 
	d="
M75.319679,91.920830 
	C77.839157,89.269958 80.239510,86.895813 82.877609,84.278526 
	C87.339546,89.503441 85.682419,95.896561 85.665764,102.531006 
	C84.921989,103.367149 84.451660,103.660942 83.981331,103.954735 
	C83.981331,103.954735 83.488426,103.955841 82.977600,103.857056 
	C81.650421,104.178764 80.834053,104.599258 79.743164,104.893723 
	C78.652519,104.184074 77.836395,103.600449 77.020279,103.016823 
	C76.767189,102.508453 76.514099,102.000084 76.117455,100.921188 
	C75.655037,99.577484 75.336174,98.804291 75.017311,98.031105 
	C75.017311,98.031105 75.015121,97.987541 74.871803,97.763718 
	C74.476845,97.317032 74.225212,97.094154 73.973579,96.871277 
	C73.973579,96.871277 73.869789,96.454567 73.920425,95.992859 
	C74.025017,95.361404 74.078972,95.191650 74.132927,95.021889 
	C74.488808,94.080444 74.844681,93.139000 75.319679,91.920830 
M79.796921,98.147888 
	C83.994484,97.162933 83.994484,97.162933 83.172989,93.772255 
	C77.665421,95.084335 77.665421,95.084335 79.796921,98.147888 
z"/>
<path fill="#58160F" opacity="1.000000" stroke="none" 
	d="
M76.941406,103.339172 
	C77.836395,103.600449 78.652519,104.184074 80.000916,104.979782 
	C80.982269,105.489212 81.431351,105.786545 81.880432,106.083878 
	C81.909126,106.503494 81.937828,106.923119 81.998703,107.656273 
	C79.231094,108.257210 76.431313,108.544601 72.617798,108.936058 
	C74.581955,106.495377 75.722244,105.078445 76.941406,103.339172 
z"/>
<path fill="#34343A" opacity="1.000000" stroke="none" 
	d="
M98.964287,99.945404 
	C103.272392,98.568123 103.098961,101.421783 102.988419,104.603989 
	C101.604759,105.015564 100.225197,105.035370 98.431656,105.053940 
	C98.236549,103.585823 98.455437,102.118950 98.834488,100.323639 
	C98.994659,99.995209 98.964287,99.945404 98.964287,99.945404 
z"/>
<path fill="#58160F" opacity="1.000000" stroke="none" 
	d="
M75.005585,98.401611 
	C75.336174,98.804291 75.655037,99.577484 75.968483,100.678955 
	C75.963066,101.007248 75.484428,101.002350 75.245178,101.000107 
	C75.001907,100.255951 74.997879,99.514038 75.005585,98.401611 
z"/>
<path fill="#58160F" opacity="1.000000" stroke="none" 
	d="
M82.026810,108.246742 
	C82.348366,108.204063 82.429390,108.482765 82.154190,108.932846 
	C82.034424,108.872261 82.030533,108.693558 82.026810,108.246742 
z"/>
<path fill="#6C130B" opacity="1.000000" stroke="none" 
	d="
M73.999367,95.103981 
	C74.078972,95.191650 74.025017,95.361404 73.879044,95.782166 
	C73.616653,95.726761 73.642906,95.444397 73.999367,95.103981 
z"/>
<path fill="#58160F" opacity="1.000000" stroke="none" 
	d="
M73.950424,97.149231 
	C74.225212,97.094154 74.476845,97.317032 74.850250,97.760353 
	C74.789520,97.985603 74.607010,97.990410 74.149582,97.988861 
	C73.892189,97.797394 73.909721,97.612289 73.950424,97.149231 
z"/>
<path fill="#665849" opacity="1.000000" stroke="none" 
	d="
M97.939491,90.852394 
	C97.509827,90.616539 96.923561,90.487473 96.677414,90.126480 
	C95.567825,88.499222 94.554626,86.806236 93.506683,85.136940 
	C95.760513,84.461548 97.999947,83.439606 100.277901,83.344994 
	C100.876328,83.320137 101.600296,86.165154 102.253914,87.697647 
	C102.508354,88.294205 102.727768,88.905701 102.798645,89.924652 
	C101.069275,90.510078 99.504379,90.681236 97.939491,90.852394 
z"/>
<path fill="#454549" opacity="1.000000" stroke="none" 
	d="
M98.986565,95.995255 
	C99.007278,97.111153 99.028000,98.227058 99.006500,99.644180 
	C98.964287,99.945404 98.994659,99.995209 98.969978,99.977753 
	C97.406342,100.773399 95.867393,101.586510 94.162666,102.700928 
	C93.996887,103.002243 93.990067,102.973740 93.990067,102.973740 
	C92.008858,102.654922 88.500053,102.681160 88.335350,101.952019 
	C87.857803,99.837929 88.722893,97.420563 89.488007,95.345062 
	C91.097183,99.632355 93.386559,99.852760 96.482101,97.502823 
	C97.253731,96.917061 98.148430,96.493416 98.986565,95.995255 
z"/>
<path fill="#705F4C" opacity="1.000000" stroke="none" 
	d="
M98.887360,95.668648 
	C98.148430,96.493416 97.253731,96.917061 96.482101,97.502823 
	C93.386559,99.852760 91.097183,99.632355 89.816071,95.222694 
	C91.471664,90.076080 93.759865,90.193275 98.887360,95.668648 
z"/>
<path fill="#34343A" opacity="1.000000" stroke="none" 
	d="
M98.126785,91.138115 
	C99.504379,90.681236 101.069275,90.510078 102.949692,90.255844 
	C103.496635,91.340790 103.728058,92.508820 104.186409,94.822182 
	C101.543983,93.292999 99.929031,92.358421 98.126785,91.138115 
z"/>
<path fill="#665849" opacity="1.000000" stroke="none" 
	d="
M87.178925,80.318985 
	C87.945755,80.097313 88.669403,80.112831 89.779633,80.466919 
	C90.433151,81.500000 90.700089,82.194489 90.967033,82.888985 
	C89.850815,82.728508 88.734589,82.568031 87.549606,82.143562 
	C87.358597,81.599007 87.236351,81.318436 87.114098,81.037872 
	C87.114098,81.037872 87.135742,80.556175 87.178925,80.318985 
z"/>
<path fill="#8A663B" opacity="1.000000" stroke="none" 
	d="
M91.006584,82.918976 
	C90.700089,82.194489 90.433151,81.500000 90.138733,80.530273 
	C90.478180,80.216637 90.845093,80.178238 91.488861,80.155350 
	C91.899467,80.991470 92.033226,81.812088 91.833664,82.814415 
	C91.500343,82.996117 91.137978,82.986694 91.137978,82.986694 
	C91.137978,82.986694 91.046135,82.948975 91.006584,82.918976 
z"/>
<path fill="#34343A" opacity="1.000000" stroke="none" 
	d="
M82.093674,105.863403 
	C81.431351,105.786545 80.982269,105.489212 80.275436,105.105812 
	C80.834053,104.599258 81.650421,104.178764 82.731323,103.866341 
	C82.766220,104.530586 82.536560,105.086754 82.093674,105.863403 
z"/>
<path fill="#34343A" opacity="1.000000" stroke="none" 
	d="
M93.984726,102.990082 
	C94.407166,103.338867 94.841759,103.699806 95.276360,104.060745 
	C95.082031,104.269081 94.887711,104.477417 94.693382,104.685753 
	C94.417961,104.268890 94.142540,103.852020 93.928596,103.204453 
	C93.990067,102.973740 93.996887,103.002243 93.984726,102.990082 
z"/>
<path fill="#34343A" opacity="1.000000" stroke="none" 
	d="
M84.182129,104.101196 
	C84.451660,103.660942 84.921989,103.367149 85.659271,102.991165 
	C85.411789,103.355194 84.897362,103.801422 84.182129,104.101196 
z"/>
<path fill="#8A663B" opacity="1.000000" stroke="none" 
	d="
M87.094841,81.260406 
	C87.236351,81.318436 87.358597,81.599007 87.312157,81.902039 
	C87.143471,81.924500 87.075584,81.482948 87.094841,81.260406 
z"/>
<path fill="#665849" opacity="1.000000" stroke="none" 
	d="
M91.206947,83.080727 
	C91.137978,82.986694 91.500343,82.996117 91.679268,83.010780 
	C91.858192,83.025444 91.597679,83.233673 91.597679,83.233673 
	C91.597679,83.233673 91.275917,83.174759 91.206947,83.080727 
z"/>
<path fill="#8A663B" opacity="1.000000" stroke="none" 
	d="
M79.506653,98.240784 
	C77.665421,95.084335 77.665421,95.084335 83.172989,93.772255 
	C83.994484,97.162933 83.994484,97.162933 79.506653,98.240784 
z"/>
</svg>